<?xml version="1.0" standalone="no"?>
<!DOCTYPE svg PUBLIC "-//W3C//DTD SVG 20010904//EN"
 "http://www.w3.org/TR/2001/REC-SVG-20010904/DTD/svg10.dtd">
<svg version="1.0" xmlns="http://www.w3.org/2000/svg"
 width="156.000000pt" height="156.000000pt" viewBox="0 0 156.000000 156.000000"
 preserveAspectRatio="xMidYMid meet">
<metadata>
Created by potrace 1.14, written by Peter Selinger 2001-2017
</metadata>
<g transform="translate(0.000000,156.000000) scale(0.100000,-0.100000)"
fill="#000000" stroke="none">
<path d="M747 1544 c-21 -11 -27 -21 -24 -35 3 -10 -3 -29 -13 -41 -15 -20
-140 -299 -140 -314 0 -4 -23 -46 -50 -95 -28 -49 -56 -115 -64 -147 -8 -37
-27 -76 -50 -106 -78 -102 -116 -196 -116 -286 l0 -46 -52 -10 c-48 -8 -55
-13 -75 -49 -57 -104 -93 -325 -60 -367 20 -26 242 -38 813 -45 506 -6 521 -6
528 13 4 10 10 63 13 116 5 84 3 102 -15 141 -19 41 -52 76 -98 103 -18 11
-18 12 4 36 12 13 22 28 22 32 0 5 20 49 45 98 36 72 45 100 45 142 0 53 -19
86 -48 86 -7 0 -12 12 -12 28 0 21 -13 37 -57 72 -59 46 -146 165 -223 306
-22 39 -57 91 -78 115 -42 48 -72 101 -92 164 -7 22 -21 55 -32 73 -19 31 -22
32 -81 32 -36 -1 -74 -7 -90 -16z"/>
</g>
</svg>
